G04 start of page 8 for group 1 layer_idx 8 *
G04 Title: (unknown), top_silk *
G04 Creator: pcb-rnd 2.3.0 *
G04 CreationDate: 2021-04-02 01:52:25 UTC *
G04 For:  *
G04 Format: Gerber/RS-274X *
G04 PCB-Dimensions: 300000 500000 *
G04 PCB-Coordinate-Origin: lower left *
%MOIN*%
%FSLAX25Y25*%
%LNTOP_SILK_NONE_1*%
%ADD51C,0.0070*%
%ADD50C,0.0200*%
%ADD49C,0.0150*%
%ADD48C,0.0100*%
%ADD47C,0.0001*%
G54D47*G36*
X11000Y469250D02*Y470250D01*
X14500Y466750D01*
X13500D01*
X11000Y469250D01*
G37*
G36*
Y472250D02*X16500Y466750D01*
X15500D01*
X11000Y471250D01*
Y472250D01*
G37*
G36*
X12000Y473250D02*X18500Y466750D01*
X17500D01*
X11000Y473250D01*
X12000D01*
G37*
G36*
X11000Y468250D02*X12500Y466750D01*
X11000D01*
Y468250D01*
G37*
G36*
Y449250D02*Y450250D01*
X14500Y446750D01*
X13500D01*
X11000Y449250D01*
G37*
G36*
Y452250D02*X16500Y446750D01*
X15500D01*
X11000Y451250D01*
Y452250D01*
G37*
G36*
X12000Y453250D02*X18500Y446750D01*
X17500D01*
X11000Y453250D01*
X12000D01*
G37*
G36*
X11000Y448250D02*X12500Y446750D01*
X11000D01*
Y448250D01*
G37*
G36*
Y439250D02*Y440250D01*
X14500Y436750D01*
X13500D01*
X11000Y439250D01*
G37*
G36*
Y442250D02*X16500Y436750D01*
X15500D01*
X11000Y441250D01*
Y442250D01*
G37*
G36*
X12000Y443250D02*X18500Y436750D01*
X17500D01*
X11000Y443250D01*
X12000D01*
G37*
G36*
X11000Y438250D02*X12500Y436750D01*
X11000D01*
Y438250D01*
G37*
G36*
Y429250D02*Y430250D01*
X14500Y426750D01*
X13500D01*
X11000Y429250D01*
G37*
G36*
Y432250D02*X16500Y426750D01*
X15500D01*
X11000Y431250D01*
Y432250D01*
G37*
G36*
X12000Y433250D02*X18500Y426750D01*
X17500D01*
X11000Y433250D01*
X12000D01*
G37*
G36*
X11000Y428250D02*X12500Y426750D01*
X11000D01*
Y428250D01*
G37*
G36*
Y419250D02*Y420250D01*
X14500Y416750D01*
X13500D01*
X11000Y419250D01*
G37*
G36*
Y422250D02*X16500Y416750D01*
X15500D01*
X11000Y421250D01*
Y422250D01*
G37*
G36*
X12000Y423250D02*X18500Y416750D01*
X17500D01*
X11000Y423250D01*
X12000D01*
G37*
G36*
X11000Y418250D02*X12500Y416750D01*
X11000D01*
Y418250D01*
G37*
G36*
Y409250D02*Y410250D01*
X14500Y406750D01*
X13500D01*
X11000Y409250D01*
G37*
G36*
Y412250D02*X16500Y406750D01*
X15500D01*
X11000Y411250D01*
Y412250D01*
G37*
G36*
X12000Y413250D02*X18500Y406750D01*
X17500D01*
X11000Y413250D01*
X12000D01*
G37*
G36*
X11000Y408250D02*X12500Y406750D01*
X11000D01*
Y408250D01*
G37*
G36*
Y399250D02*Y400250D01*
X14500Y396750D01*
X13500D01*
X11000Y399250D01*
G37*
G36*
Y402250D02*X16500Y396750D01*
X15500D01*
X11000Y401250D01*
Y402250D01*
G37*
G36*
X12000Y403250D02*X18500Y396750D01*
X17500D01*
X11000Y403250D01*
X12000D01*
G37*
G36*
X11000Y398250D02*X12500Y396750D01*
X11000D01*
Y398250D01*
G37*
G36*
Y389250D02*Y390250D01*
X14500Y386750D01*
X13500D01*
X11000Y389250D01*
G37*
G36*
Y392250D02*X16500Y386750D01*
X15500D01*
X11000Y391250D01*
Y392250D01*
G37*
G36*
X12000Y393250D02*X18500Y386750D01*
X17500D01*
X11000Y393250D01*
X12000D01*
G37*
G36*
X11000Y388250D02*X12500Y386750D01*
X11000D01*
Y388250D01*
G37*
G36*
Y379250D02*Y380250D01*
X14500Y376750D01*
X13500D01*
X11000Y379250D01*
G37*
G36*
Y382250D02*X16500Y376750D01*
X15500D01*
X11000Y381250D01*
Y382250D01*
G37*
G36*
X12000Y383250D02*X18500Y376750D01*
X17500D01*
X11000Y383250D01*
X12000D01*
G37*
G36*
X11000Y378250D02*X12500Y376750D01*
X11000D01*
Y378250D01*
G37*
G36*
Y369250D02*Y370250D01*
X14500Y366750D01*
X13500D01*
X11000Y369250D01*
G37*
G36*
Y372250D02*X16500Y366750D01*
X15500D01*
X11000Y371250D01*
Y372250D01*
G37*
G36*
X12000Y373250D02*X18500Y366750D01*
X17500D01*
X11000Y373250D01*
X12000D01*
G37*
G36*
X11000Y368250D02*X12500Y366750D01*
X11000D01*
Y368250D01*
G37*
G36*
Y359250D02*Y360250D01*
X14500Y356750D01*
X13500D01*
X11000Y359250D01*
G37*
G36*
Y362250D02*X16500Y356750D01*
X15500D01*
X11000Y361250D01*
Y362250D01*
G37*
G36*
X12000Y363250D02*X18500Y356750D01*
X17500D01*
X11000Y363250D01*
X12000D01*
G37*
G36*
X11000Y358250D02*X12500Y356750D01*
X11000D01*
Y358250D01*
G37*
G36*
Y349250D02*Y350250D01*
X14500Y346750D01*
X13500D01*
X11000Y349250D01*
G37*
G36*
Y352250D02*X16500Y346750D01*
X15500D01*
X11000Y351250D01*
Y352250D01*
G37*
G36*
X12000Y353250D02*X18500Y346750D01*
X17500D01*
X11000Y353250D01*
X12000D01*
G37*
G36*
X11000Y348250D02*X12500Y346750D01*
X11000D01*
Y348250D01*
G37*
G36*
Y339250D02*Y340250D01*
X14500Y336750D01*
X13500D01*
X11000Y339250D01*
G37*
G36*
Y342250D02*X16500Y336750D01*
X15500D01*
X11000Y341250D01*
Y342250D01*
G37*
G36*
X12000Y343250D02*X18500Y336750D01*
X17500D01*
X11000Y343250D01*
X12000D01*
G37*
G36*
X11000Y338250D02*X12500Y336750D01*
X11000D01*
Y338250D01*
G37*
G36*
Y329250D02*Y330250D01*
X14500Y326750D01*
X13500D01*
X11000Y329250D01*
G37*
G36*
Y332250D02*X16500Y326750D01*
X15500D01*
X11000Y331250D01*
Y332250D01*
G37*
G36*
X12000Y333250D02*X18500Y326750D01*
X17500D01*
X11000Y333250D01*
X12000D01*
G37*
G36*
X11000Y328250D02*X12500Y326750D01*
X11000D01*
Y328250D01*
G37*
G36*
Y319250D02*Y320250D01*
X14500Y316750D01*
X13500D01*
X11000Y319250D01*
G37*
G36*
Y322250D02*X16500Y316750D01*
X15500D01*
X11000Y321250D01*
Y322250D01*
G37*
G36*
X12000Y323250D02*X18500Y316750D01*
X17500D01*
X11000Y323250D01*
X12000D01*
G37*
G36*
X11000Y318250D02*X12500Y316750D01*
X11000D01*
Y318250D01*
G37*
G36*
Y309250D02*Y310250D01*
X14500Y306750D01*
X13500D01*
X11000Y309250D01*
G37*
G36*
Y312250D02*X16500Y306750D01*
X15500D01*
X11000Y311250D01*
Y312250D01*
G37*
G36*
X12000Y313250D02*X18500Y306750D01*
X17500D01*
X11000Y313250D01*
X12000D01*
G37*
G36*
X11000Y308250D02*X12500Y306750D01*
X11000D01*
Y308250D01*
G37*
G36*
Y299250D02*Y300250D01*
X14500Y296750D01*
X13500D01*
X11000Y299250D01*
G37*
G36*
Y302250D02*X16500Y296750D01*
X15500D01*
X11000Y301250D01*
Y302250D01*
G37*
G36*
X12000Y303250D02*X18500Y296750D01*
X17500D01*
X11000Y303250D01*
X12000D01*
G37*
G36*
X11000Y298250D02*X12500Y296750D01*
X11000D01*
Y298250D01*
G37*
G36*
Y289250D02*Y290250D01*
X14500Y286750D01*
X13500D01*
X11000Y289250D01*
G37*
G36*
Y292250D02*X16500Y286750D01*
X15500D01*
X11000Y291250D01*
Y292250D01*
G37*
G36*
X12000Y293250D02*X18500Y286750D01*
X17500D01*
X11000Y293250D01*
X12000D01*
G37*
G36*
X11000Y288250D02*X12500Y286750D01*
X11000D01*
Y288250D01*
G37*
G36*
Y279250D02*Y280250D01*
X14500Y276750D01*
X13500D01*
X11000Y279250D01*
G37*
G36*
Y282250D02*X16500Y276750D01*
X15500D01*
X11000Y281250D01*
Y282250D01*
G37*
G36*
X12000Y283250D02*X18500Y276750D01*
X17500D01*
X11000Y283250D01*
X12000D01*
G37*
G36*
X11000Y278250D02*X12500Y276750D01*
X11000D01*
Y278250D01*
G37*
G36*
Y269250D02*Y270250D01*
X14500Y266750D01*
X13500D01*
X11000Y269250D01*
G37*
G36*
Y272250D02*X16500Y266750D01*
X15500D01*
X11000Y271250D01*
Y272250D01*
G37*
G36*
X12000Y273250D02*X18500Y266750D01*
X17500D01*
X11000Y273250D01*
X12000D01*
G37*
G36*
X11000Y268250D02*X12500Y266750D01*
X11000D01*
Y268250D01*
G37*
G36*
Y259250D02*Y260250D01*
X14500Y256750D01*
X13500D01*
X11000Y259250D01*
G37*
G36*
Y262250D02*X16500Y256750D01*
X15500D01*
X11000Y261250D01*
Y262250D01*
G37*
G36*
X12000Y263250D02*X18500Y256750D01*
X17500D01*
X11000Y263250D01*
X12000D01*
G37*
G36*
X11000Y258250D02*X12500Y256750D01*
X11000D01*
Y258250D01*
G37*
G36*
Y249250D02*Y250250D01*
X14500Y246750D01*
X13500D01*
X11000Y249250D01*
G37*
G36*
Y252250D02*X16500Y246750D01*
X15500D01*
X11000Y251250D01*
Y252250D01*
G37*
G36*
X12000Y253250D02*X18500Y246750D01*
X17500D01*
X11000Y253250D01*
X12000D01*
G37*
G36*
X11000Y248250D02*X12500Y246750D01*
X11000D01*
Y248250D01*
G37*
G36*
Y239250D02*Y240250D01*
X14500Y236750D01*
X13500D01*
X11000Y239250D01*
G37*
G36*
Y242250D02*X16500Y236750D01*
X15500D01*
X11000Y241250D01*
Y242250D01*
G37*
G36*
X12000Y243250D02*X18500Y236750D01*
X17500D01*
X11000Y243250D01*
X12000D01*
G37*
G36*
X11000Y238250D02*X12500Y236750D01*
X11000D01*
Y238250D01*
G37*
G36*
Y229250D02*Y230250D01*
X14500Y226750D01*
X13500D01*
X11000Y229250D01*
G37*
G36*
Y232250D02*X16500Y226750D01*
X15500D01*
X11000Y231250D01*
Y232250D01*
G37*
G36*
X12000Y233250D02*X18500Y226750D01*
X17500D01*
X11000Y233250D01*
X12000D01*
G37*
G36*
X11000Y228250D02*X12500Y226750D01*
X11000D01*
Y228250D01*
G37*
G36*
Y219250D02*Y220250D01*
X14500Y216750D01*
X13500D01*
X11000Y219250D01*
G37*
G36*
Y222250D02*X16500Y216750D01*
X15500D01*
X11000Y221250D01*
Y222250D01*
G37*
G36*
X12000Y223250D02*X18500Y216750D01*
X17500D01*
X11000Y223250D01*
X12000D01*
G37*
G36*
X11000Y218250D02*X12500Y216750D01*
X11000D01*
Y218250D01*
G37*
G36*
Y209250D02*Y210250D01*
X14500Y206750D01*
X13500D01*
X11000Y209250D01*
G37*
G36*
Y212250D02*X16500Y206750D01*
X15500D01*
X11000Y211250D01*
Y212250D01*
G37*
G36*
X12000Y213250D02*X18500Y206750D01*
X17500D01*
X11000Y213250D01*
X12000D01*
G37*
G36*
X11000Y208250D02*X12500Y206750D01*
X11000D01*
Y208250D01*
G37*
G36*
Y199250D02*Y200250D01*
X14500Y196750D01*
X13500D01*
X11000Y199250D01*
G37*
G36*
Y202250D02*X16500Y196750D01*
X15500D01*
X11000Y201250D01*
Y202250D01*
G37*
G36*
X12000Y203250D02*X18500Y196750D01*
X17500D01*
X11000Y203250D01*
X12000D01*
G37*
G36*
X11000Y198250D02*X12500Y196750D01*
X11000D01*
Y198250D01*
G37*
G36*
Y189250D02*Y190250D01*
X14500Y186750D01*
X13500D01*
X11000Y189250D01*
G37*
G36*
Y192250D02*X16500Y186750D01*
X15500D01*
X11000Y191250D01*
Y192250D01*
G37*
G36*
X12000Y193250D02*X18500Y186750D01*
X17500D01*
X11000Y193250D01*
X12000D01*
G37*
G36*
X11000Y188250D02*X12500Y186750D01*
X11000D01*
Y188250D01*
G37*
G36*
Y179250D02*Y180250D01*
X14500Y176750D01*
X13500D01*
X11000Y179250D01*
G37*
G36*
Y182250D02*X16500Y176750D01*
X15500D01*
X11000Y181250D01*
Y182250D01*
G37*
G36*
X12000Y183250D02*X18500Y176750D01*
X17500D01*
X11000Y183250D01*
X12000D01*
G37*
G36*
X11000Y178250D02*X12500Y176750D01*
X11000D01*
Y178250D01*
G37*
G36*
Y169250D02*Y170250D01*
X14500Y166750D01*
X13500D01*
X11000Y169250D01*
G37*
G36*
Y172250D02*X16500Y166750D01*
X15500D01*
X11000Y171250D01*
Y172250D01*
G37*
G36*
X12000Y173250D02*X18500Y166750D01*
X17500D01*
X11000Y173250D01*
X12000D01*
G37*
G36*
X11000Y168250D02*X12500Y166750D01*
X11000D01*
Y168250D01*
G37*
G36*
Y159250D02*Y160250D01*
X14500Y156750D01*
X13500D01*
X11000Y159250D01*
G37*
G36*
Y162250D02*X16500Y156750D01*
X15500D01*
X11000Y161250D01*
Y162250D01*
G37*
G36*
X12000Y163250D02*X18500Y156750D01*
X17500D01*
X11000Y163250D01*
X12000D01*
G37*
G36*
X11000Y158250D02*X12500Y156750D01*
X11000D01*
Y158250D01*
G37*
G36*
X14000Y163250D02*X20500Y156750D01*
X19500D01*
X13000Y163250D01*
X14000D01*
G37*
G36*
X16000D02*X22500Y156750D01*
X21500D01*
X15000Y163250D01*
X16000D01*
G37*
G36*
X18000D02*X24500Y156750D01*
X23500D01*
X17000Y163250D01*
X18000D01*
G37*
G36*
X20000D02*X26500Y156750D01*
X25500D01*
X19000Y163250D01*
X20000D01*
G37*
G36*
X22000D02*X28500Y156750D01*
X27500D01*
X21000Y163250D01*
X22000D01*
G37*
G36*
X24000D02*X30500Y156750D01*
X29500D01*
X23000Y163250D01*
X24000D01*
G37*
G36*
X26000D02*X31000Y158250D01*
Y157250D01*
X25000Y163250D01*
X26000D01*
G37*
G36*
X28000D02*X31000Y160250D01*
Y159250D01*
X27000Y163250D01*
X28000D01*
G37*
G36*
X29000D02*X30000D01*
X31000Y162250D01*
Y161250D01*
X29000Y163250D01*
G37*
G36*
X14000Y173250D02*X20500Y166750D01*
X19500D01*
X13000Y173250D01*
X14000D01*
G37*
G36*
X16000D02*X22500Y166750D01*
X21500D01*
X15000Y173250D01*
X16000D01*
G37*
G36*
X18000D02*X24500Y166750D01*
X23500D01*
X17000Y173250D01*
X18000D01*
G37*
G36*
X20000D02*X26500Y166750D01*
X25500D01*
X19000Y173250D01*
X20000D01*
G37*
G36*
X22000D02*X28500Y166750D01*
X27500D01*
X21000Y173250D01*
X22000D01*
G37*
G36*
X24000D02*X30500Y166750D01*
X29500D01*
X23000Y173250D01*
X24000D01*
G37*
G36*
X26000D02*X31000Y168250D01*
Y167250D01*
X25000Y173250D01*
X26000D01*
G37*
G36*
X28000D02*X31000Y170250D01*
Y169250D01*
X27000Y173250D01*
X28000D01*
G37*
G36*
X29000D02*X30000D01*
X31000Y172250D01*
Y171250D01*
X29000Y173250D01*
G37*
G36*
X14000Y183250D02*X20500Y176750D01*
X19500D01*
X13000Y183250D01*
X14000D01*
G37*
G36*
X16000D02*X22500Y176750D01*
X21500D01*
X15000Y183250D01*
X16000D01*
G37*
G36*
X18000D02*X24500Y176750D01*
X23500D01*
X17000Y183250D01*
X18000D01*
G37*
G36*
X20000D02*X26500Y176750D01*
X25500D01*
X19000Y183250D01*
X20000D01*
G37*
G36*
X22000D02*X28500Y176750D01*
X27500D01*
X21000Y183250D01*
X22000D01*
G37*
G36*
X24000D02*X30500Y176750D01*
X29500D01*
X23000Y183250D01*
X24000D01*
G37*
G36*
X26000D02*X31000Y178250D01*
Y177250D01*
X25000Y183250D01*
X26000D01*
G37*
G36*
X28000D02*X31000Y180250D01*
Y179250D01*
X27000Y183250D01*
X28000D01*
G37*
G36*
X29000D02*X30000D01*
X31000Y182250D01*
Y181250D01*
X29000Y183250D01*
G37*
G36*
X14000Y193250D02*X20500Y186750D01*
X19500D01*
X13000Y193250D01*
X14000D01*
G37*
G36*
X16000D02*X22500Y186750D01*
X21500D01*
X15000Y193250D01*
X16000D01*
G37*
G36*
X18000D02*X24500Y186750D01*
X23500D01*
X17000Y193250D01*
X18000D01*
G37*
G36*
X20000D02*X26500Y186750D01*
X25500D01*
X19000Y193250D01*
X20000D01*
G37*
G36*
X22000D02*X28500Y186750D01*
X27500D01*
X21000Y193250D01*
X22000D01*
G37*
G36*
X24000D02*X30500Y186750D01*
X29500D01*
X23000Y193250D01*
X24000D01*
G37*
G36*
X26000D02*X31000Y188250D01*
Y187250D01*
X25000Y193250D01*
X26000D01*
G37*
G36*
X28000D02*X31000Y190250D01*
Y189250D01*
X27000Y193250D01*
X28000D01*
G37*
G36*
X29000D02*X30000D01*
X31000Y192250D01*
Y191250D01*
X29000Y193250D01*
G37*
G36*
X14000Y203250D02*X20500Y196750D01*
X19500D01*
X13000Y203250D01*
X14000D01*
G37*
G36*
X16000D02*X22500Y196750D01*
X21500D01*
X15000Y203250D01*
X16000D01*
G37*
G36*
X18000D02*X24500Y196750D01*
X23500D01*
X17000Y203250D01*
X18000D01*
G37*
G36*
X20000D02*X26500Y196750D01*
X25500D01*
X19000Y203250D01*
X20000D01*
G37*
G36*
X22000D02*X28500Y196750D01*
X27500D01*
X21000Y203250D01*
X22000D01*
G37*
G36*
X24000D02*X30500Y196750D01*
X29500D01*
X23000Y203250D01*
X24000D01*
G37*
G36*
X26000D02*X31000Y198250D01*
Y197250D01*
X25000Y203250D01*
X26000D01*
G37*
G36*
X28000D02*X31000Y200250D01*
Y199250D01*
X27000Y203250D01*
X28000D01*
G37*
G36*
X29000D02*X30000D01*
X31000Y202250D01*
Y201250D01*
X29000Y203250D01*
G37*
G36*
X14000Y213250D02*X20500Y206750D01*
X19500D01*
X13000Y213250D01*
X14000D01*
G37*
G36*
X16000D02*X22500Y206750D01*
X21500D01*
X15000Y213250D01*
X16000D01*
G37*
G36*
X18000D02*X24500Y206750D01*
X23500D01*
X17000Y213250D01*
X18000D01*
G37*
G36*
X20000D02*X26500Y206750D01*
X25500D01*
X19000Y213250D01*
X20000D01*
G37*
G36*
X22000D02*X28500Y206750D01*
X27500D01*
X21000Y213250D01*
X22000D01*
G37*
G36*
X24000D02*X30500Y206750D01*
X29500D01*
X23000Y213250D01*
X24000D01*
G37*
G36*
X26000D02*X31000Y208250D01*
Y207250D01*
X25000Y213250D01*
X26000D01*
G37*
G36*
X28000D02*X31000Y210250D01*
Y209250D01*
X27000Y213250D01*
X28000D01*
G37*
G36*
X29000D02*X30000D01*
X31000Y212250D01*
Y211250D01*
X29000Y213250D01*
G37*
G36*
X14000Y223250D02*X20500Y216750D01*
X19500D01*
X13000Y223250D01*
X14000D01*
G37*
G36*
X16000D02*X22500Y216750D01*
X21500D01*
X15000Y223250D01*
X16000D01*
G37*
G36*
X18000D02*X24500Y216750D01*
X23500D01*
X17000Y223250D01*
X18000D01*
G37*
G36*
X20000D02*X26500Y216750D01*
X25500D01*
X19000Y223250D01*
X20000D01*
G37*
G36*
X22000D02*X28500Y216750D01*
X27500D01*
X21000Y223250D01*
X22000D01*
G37*
G36*
X24000D02*X30500Y216750D01*
X29500D01*
X23000Y223250D01*
X24000D01*
G37*
G36*
X26000D02*X31000Y218250D01*
Y217250D01*
X25000Y223250D01*
X26000D01*
G37*
G36*
X28000D02*X31000Y220250D01*
Y219250D01*
X27000Y223250D01*
X28000D01*
G37*
G36*
X29000D02*X30000D01*
X31000Y222250D01*
Y221250D01*
X29000Y223250D01*
G37*
G36*
X14000Y233250D02*X20500Y226750D01*
X19500D01*
X13000Y233250D01*
X14000D01*
G37*
G36*
X16000D02*X22500Y226750D01*
X21500D01*
X15000Y233250D01*
X16000D01*
G37*
G36*
X18000D02*X24500Y226750D01*
X23500D01*
X17000Y233250D01*
X18000D01*
G37*
G36*
X20000D02*X26500Y226750D01*
X25500D01*
X19000Y233250D01*
X20000D01*
G37*
G36*
X22000D02*X28500Y226750D01*
X27500D01*
X21000Y233250D01*
X22000D01*
G37*
G36*
X24000D02*X30500Y226750D01*
X29500D01*
X23000Y233250D01*
X24000D01*
G37*
G36*
X26000D02*X31000Y228250D01*
Y227250D01*
X25000Y233250D01*
X26000D01*
G37*
G36*
X28000D02*X31000Y230250D01*
Y229250D01*
X27000Y233250D01*
X28000D01*
G37*
G36*
X29000D02*X30000D01*
X31000Y232250D01*
Y231250D01*
X29000Y233250D01*
G37*
G36*
X14000Y243250D02*X20500Y236750D01*
X19500D01*
X13000Y243250D01*
X14000D01*
G37*
G36*
X16000D02*X22500Y236750D01*
X21500D01*
X15000Y243250D01*
X16000D01*
G37*
G36*
X18000D02*X24500Y236750D01*
X23500D01*
X17000Y243250D01*
X18000D01*
G37*
G36*
X20000D02*X26500Y236750D01*
X25500D01*
X19000Y243250D01*
X20000D01*
G37*
G36*
X22000D02*X28500Y236750D01*
X27500D01*
X21000Y243250D01*
X22000D01*
G37*
G36*
X24000D02*X30500Y236750D01*
X29500D01*
X23000Y243250D01*
X24000D01*
G37*
G36*
X26000D02*X31000Y238250D01*
Y237250D01*
X25000Y243250D01*
X26000D01*
G37*
G36*
X28000D02*X31000Y240250D01*
Y239250D01*
X27000Y243250D01*
X28000D01*
G37*
G36*
X29000D02*X30000D01*
X31000Y242250D01*
Y241250D01*
X29000Y243250D01*
G37*
G36*
X14000Y253250D02*X20500Y246750D01*
X19500D01*
X13000Y253250D01*
X14000D01*
G37*
G36*
X16000D02*X22500Y246750D01*
X21500D01*
X15000Y253250D01*
X16000D01*
G37*
G36*
X18000D02*X24500Y246750D01*
X23500D01*
X17000Y253250D01*
X18000D01*
G37*
G36*
X20000D02*X26500Y246750D01*
X25500D01*
X19000Y253250D01*
X20000D01*
G37*
G36*
X22000D02*X28500Y246750D01*
X27500D01*
X21000Y253250D01*
X22000D01*
G37*
G36*
X24000D02*X30500Y246750D01*
X29500D01*
X23000Y253250D01*
X24000D01*
G37*
G36*
X26000D02*X31000Y248250D01*
Y247250D01*
X25000Y253250D01*
X26000D01*
G37*
G36*
X28000D02*X31000Y250250D01*
Y249250D01*
X27000Y253250D01*
X28000D01*
G37*
G36*
X29000D02*X30000D01*
X31000Y252250D01*
Y251250D01*
X29000Y253250D01*
G37*
G36*
X14000Y263250D02*X20500Y256750D01*
X19500D01*
X13000Y263250D01*
X14000D01*
G37*
G36*
X16000D02*X22500Y256750D01*
X21500D01*
X15000Y263250D01*
X16000D01*
G37*
G36*
X18000D02*X24500Y256750D01*
X23500D01*
X17000Y263250D01*
X18000D01*
G37*
G36*
X20000D02*X26500Y256750D01*
X25500D01*
X19000Y263250D01*
X20000D01*
G37*
G36*
X22000D02*X28500Y256750D01*
X27500D01*
X21000Y263250D01*
X22000D01*
G37*
G36*
X24000D02*X30500Y256750D01*
X29500D01*
X23000Y263250D01*
X24000D01*
G37*
G36*
X26000D02*X31000Y258250D01*
Y257250D01*
X25000Y263250D01*
X26000D01*
G37*
G36*
X28000D02*X31000Y260250D01*
Y259250D01*
X27000Y263250D01*
X28000D01*
G37*
G36*
X29000D02*X30000D01*
X31000Y262250D01*
Y261250D01*
X29000Y263250D01*
G37*
G36*
X14000Y273250D02*X20500Y266750D01*
X19500D01*
X13000Y273250D01*
X14000D01*
G37*
G36*
X16000D02*X22500Y266750D01*
X21500D01*
X15000Y273250D01*
X16000D01*
G37*
G36*
X18000D02*X24500Y266750D01*
X23500D01*
X17000Y273250D01*
X18000D01*
G37*
G36*
X20000D02*X26500Y266750D01*
X25500D01*
X19000Y273250D01*
X20000D01*
G37*
G36*
X22000D02*X28500Y266750D01*
X27500D01*
X21000Y273250D01*
X22000D01*
G37*
G36*
X24000D02*X30500Y266750D01*
X29500D01*
X23000Y273250D01*
X24000D01*
G37*
G36*
X26000D02*X31000Y268250D01*
Y267250D01*
X25000Y273250D01*
X26000D01*
G37*
G36*
X28000D02*X31000Y270250D01*
Y269250D01*
X27000Y273250D01*
X28000D01*
G37*
G36*
X29000D02*X30000D01*
X31000Y272250D01*
Y271250D01*
X29000Y273250D01*
G37*
G36*
X14000Y283250D02*X20500Y276750D01*
X19500D01*
X13000Y283250D01*
X14000D01*
G37*
G36*
X16000D02*X22500Y276750D01*
X21500D01*
X15000Y283250D01*
X16000D01*
G37*
G36*
X18000D02*X24500Y276750D01*
X23500D01*
X17000Y283250D01*
X18000D01*
G37*
G36*
X20000D02*X26500Y276750D01*
X25500D01*
X19000Y283250D01*
X20000D01*
G37*
G36*
X22000D02*X28500Y276750D01*
X27500D01*
X21000Y283250D01*
X22000D01*
G37*
G36*
X24000D02*X30500Y276750D01*
X29500D01*
X23000Y283250D01*
X24000D01*
G37*
G36*
X26000D02*X31000Y278250D01*
Y277250D01*
X25000Y283250D01*
X26000D01*
G37*
G36*
X28000D02*X31000Y280250D01*
Y279250D01*
X27000Y283250D01*
X28000D01*
G37*
G36*
X29000D02*X30000D01*
X31000Y282250D01*
Y281250D01*
X29000Y283250D01*
G37*
G36*
X14000Y293250D02*X20500Y286750D01*
X19500D01*
X13000Y293250D01*
X14000D01*
G37*
G36*
X16000D02*X22500Y286750D01*
X21500D01*
X15000Y293250D01*
X16000D01*
G37*
G36*
X18000D02*X24500Y286750D01*
X23500D01*
X17000Y293250D01*
X18000D01*
G37*
G36*
X20000D02*X26500Y286750D01*
X25500D01*
X19000Y293250D01*
X20000D01*
G37*
G36*
X22000D02*X28500Y286750D01*
X27500D01*
X21000Y293250D01*
X22000D01*
G37*
G36*
X24000D02*X30500Y286750D01*
X29500D01*
X23000Y293250D01*
X24000D01*
G37*
G36*
X26000D02*X31000Y288250D01*
Y287250D01*
X25000Y293250D01*
X26000D01*
G37*
G36*
X28000D02*X31000Y290250D01*
Y289250D01*
X27000Y293250D01*
X28000D01*
G37*
G36*
X29000D02*X30000D01*
X31000Y292250D01*
Y291250D01*
X29000Y293250D01*
G37*
G36*
X14000Y303250D02*X20500Y296750D01*
X19500D01*
X13000Y303250D01*
X14000D01*
G37*
G36*
X16000D02*X22500Y296750D01*
X21500D01*
X15000Y303250D01*
X16000D01*
G37*
G36*
X18000D02*X24500Y296750D01*
X23500D01*
X17000Y303250D01*
X18000D01*
G37*
G36*
X20000D02*X26500Y296750D01*
X25500D01*
X19000Y303250D01*
X20000D01*
G37*
G36*
X22000D02*X28500Y296750D01*
X27500D01*
X21000Y303250D01*
X22000D01*
G37*
G36*
X24000D02*X30500Y296750D01*
X29500D01*
X23000Y303250D01*
X24000D01*
G37*
G36*
X26000D02*X31000Y298250D01*
Y297250D01*
X25000Y303250D01*
X26000D01*
G37*
G36*
X28000D02*X31000Y300250D01*
Y299250D01*
X27000Y303250D01*
X28000D01*
G37*
G36*
X29000D02*X30000D01*
X31000Y302250D01*
Y301250D01*
X29000Y303250D01*
G37*
G36*
X14000Y313250D02*X20500Y306750D01*
X19500D01*
X13000Y313250D01*
X14000D01*
G37*
G36*
X16000D02*X22500Y306750D01*
X21500D01*
X15000Y313250D01*
X16000D01*
G37*
G36*
X18000D02*X24500Y306750D01*
X23500D01*
X17000Y313250D01*
X18000D01*
G37*
G36*
X20000D02*X26500Y306750D01*
X25500D01*
X19000Y313250D01*
X20000D01*
G37*
G36*
X22000D02*X28500Y306750D01*
X27500D01*
X21000Y313250D01*
X22000D01*
G37*
G36*
X24000D02*X30500Y306750D01*
X29500D01*
X23000Y313250D01*
X24000D01*
G37*
G36*
X26000D02*X31000Y308250D01*
Y307250D01*
X25000Y313250D01*
X26000D01*
G37*
G36*
X28000D02*X31000Y310250D01*
Y309250D01*
X27000Y313250D01*
X28000D01*
G37*
G36*
X29000D02*X30000D01*
X31000Y312250D01*
Y311250D01*
X29000Y313250D01*
G37*
G36*
X14000Y323250D02*X20500Y316750D01*
X19500D01*
X13000Y323250D01*
X14000D01*
G37*
G36*
X16000D02*X22500Y316750D01*
X21500D01*
X15000Y323250D01*
X16000D01*
G37*
G36*
X18000D02*X24500Y316750D01*
X23500D01*
X17000Y323250D01*
X18000D01*
G37*
G36*
X20000D02*X26500Y316750D01*
X25500D01*
X19000Y323250D01*
X20000D01*
G37*
G36*
X22000D02*X28500Y316750D01*
X27500D01*
X21000Y323250D01*
X22000D01*
G37*
G36*
X24000D02*X30500Y316750D01*
X29500D01*
X23000Y323250D01*
X24000D01*
G37*
G36*
X26000D02*X31000Y318250D01*
Y317250D01*
X25000Y323250D01*
X26000D01*
G37*
G36*
X28000D02*X31000Y320250D01*
Y319250D01*
X27000Y323250D01*
X28000D01*
G37*
G36*
X29000D02*X30000D01*
X31000Y322250D01*
Y321250D01*
X29000Y323250D01*
G37*
G36*
X14000Y333250D02*X20500Y326750D01*
X19500D01*
X13000Y333250D01*
X14000D01*
G37*
G36*
X16000D02*X22500Y326750D01*
X21500D01*
X15000Y333250D01*
X16000D01*
G37*
G36*
X18000D02*X24500Y326750D01*
X23500D01*
X17000Y333250D01*
X18000D01*
G37*
G36*
X20000D02*X26500Y326750D01*
X25500D01*
X19000Y333250D01*
X20000D01*
G37*
G36*
X22000D02*X28500Y326750D01*
X27500D01*
X21000Y333250D01*
X22000D01*
G37*
G36*
X24000D02*X30500Y326750D01*
X29500D01*
X23000Y333250D01*
X24000D01*
G37*
G36*
X26000D02*X31000Y328250D01*
Y327250D01*
X25000Y333250D01*
X26000D01*
G37*
G36*
X28000D02*X31000Y330250D01*
Y329250D01*
X27000Y333250D01*
X28000D01*
G37*
G36*
X29000D02*X30000D01*
X31000Y332250D01*
Y331250D01*
X29000Y333250D01*
G37*
G36*
X14000Y343250D02*X20500Y336750D01*
X19500D01*
X13000Y343250D01*
X14000D01*
G37*
G36*
X16000D02*X22500Y336750D01*
X21500D01*
X15000Y343250D01*
X16000D01*
G37*
G36*
X18000D02*X24500Y336750D01*
X23500D01*
X17000Y343250D01*
X18000D01*
G37*
G36*
X20000D02*X26500Y336750D01*
X25500D01*
X19000Y343250D01*
X20000D01*
G37*
G36*
X22000D02*X28500Y336750D01*
X27500D01*
X21000Y343250D01*
X22000D01*
G37*
G36*
X24000D02*X30500Y336750D01*
X29500D01*
X23000Y343250D01*
X24000D01*
G37*
G36*
X26000D02*X31000Y338250D01*
Y337250D01*
X25000Y343250D01*
X26000D01*
G37*
G36*
X28000D02*X31000Y340250D01*
Y339250D01*
X27000Y343250D01*
X28000D01*
G37*
G36*
X29000D02*X30000D01*
X31000Y342250D01*
Y341250D01*
X29000Y343250D01*
G37*
G36*
X14000Y353250D02*X20500Y346750D01*
X19500D01*
X13000Y353250D01*
X14000D01*
G37*
G36*
X16000D02*X22500Y346750D01*
X21500D01*
X15000Y353250D01*
X16000D01*
G37*
G36*
X18000D02*X24500Y346750D01*
X23500D01*
X17000Y353250D01*
X18000D01*
G37*
G36*
X20000D02*X26500Y346750D01*
X25500D01*
X19000Y353250D01*
X20000D01*
G37*
G36*
X22000D02*X28500Y346750D01*
X27500D01*
X21000Y353250D01*
X22000D01*
G37*
G36*
X24000D02*X30500Y346750D01*
X29500D01*
X23000Y353250D01*
X24000D01*
G37*
G36*
X26000D02*X31000Y348250D01*
Y347250D01*
X25000Y353250D01*
X26000D01*
G37*
G36*
X28000D02*X31000Y350250D01*
Y349250D01*
X27000Y353250D01*
X28000D01*
G37*
G36*
X29000D02*X30000D01*
X31000Y352250D01*
Y351250D01*
X29000Y353250D01*
G37*
G36*
X14000Y363250D02*X20500Y356750D01*
X19500D01*
X13000Y363250D01*
X14000D01*
G37*
G36*
X16000D02*X22500Y356750D01*
X21500D01*
X15000Y363250D01*
X16000D01*
G37*
G36*
X18000D02*X24500Y356750D01*
X23500D01*
X17000Y363250D01*
X18000D01*
G37*
G36*
X20000D02*X26500Y356750D01*
X25500D01*
X19000Y363250D01*
X20000D01*
G37*
G36*
X22000D02*X28500Y356750D01*
X27500D01*
X21000Y363250D01*
X22000D01*
G37*
G36*
X24000D02*X30500Y356750D01*
X29500D01*
X23000Y363250D01*
X24000D01*
G37*
G36*
X26000D02*X31000Y358250D01*
Y357250D01*
X25000Y363250D01*
X26000D01*
G37*
G36*
X28000D02*X31000Y360250D01*
Y359250D01*
X27000Y363250D01*
X28000D01*
G37*
G36*
X29000D02*X30000D01*
X31000Y362250D01*
Y361250D01*
X29000Y363250D01*
G37*
G36*
X14000Y373250D02*X20500Y366750D01*
X19500D01*
X13000Y373250D01*
X14000D01*
G37*
G36*
X16000D02*X22500Y366750D01*
X21500D01*
X15000Y373250D01*
X16000D01*
G37*
G36*
X18000D02*X24500Y366750D01*
X23500D01*
X17000Y373250D01*
X18000D01*
G37*
G36*
X20000D02*X26500Y366750D01*
X25500D01*
X19000Y373250D01*
X20000D01*
G37*
G36*
X22000D02*X28500Y366750D01*
X27500D01*
X21000Y373250D01*
X22000D01*
G37*
G36*
X24000D02*X30500Y366750D01*
X29500D01*
X23000Y373250D01*
X24000D01*
G37*
G36*
X26000D02*X31000Y368250D01*
Y367250D01*
X25000Y373250D01*
X26000D01*
G37*
G36*
X28000D02*X31000Y370250D01*
Y369250D01*
X27000Y373250D01*
X28000D01*
G37*
G36*
X29000D02*X30000D01*
X31000Y372250D01*
Y371250D01*
X29000Y373250D01*
G37*
G36*
X14000Y383250D02*X20500Y376750D01*
X19500D01*
X13000Y383250D01*
X14000D01*
G37*
G36*
X16000D02*X22500Y376750D01*
X21500D01*
X15000Y383250D01*
X16000D01*
G37*
G36*
X18000D02*X24500Y376750D01*
X23500D01*
X17000Y383250D01*
X18000D01*
G37*
G36*
X20000D02*X26500Y376750D01*
X25500D01*
X19000Y383250D01*
X20000D01*
G37*
G36*
X22000D02*X28500Y376750D01*
X27500D01*
X21000Y383250D01*
X22000D01*
G37*
G36*
X24000D02*X30500Y376750D01*
X29500D01*
X23000Y383250D01*
X24000D01*
G37*
G36*
X26000D02*X31000Y378250D01*
Y377250D01*
X25000Y383250D01*
X26000D01*
G37*
G36*
X28000D02*X31000Y380250D01*
Y379250D01*
X27000Y383250D01*
X28000D01*
G37*
G36*
X29000D02*X30000D01*
X31000Y382250D01*
Y381250D01*
X29000Y383250D01*
G37*
G36*
X14000Y393250D02*X20500Y386750D01*
X19500D01*
X13000Y393250D01*
X14000D01*
G37*
G36*
X16000D02*X22500Y386750D01*
X21500D01*
X15000Y393250D01*
X16000D01*
G37*
G36*
X18000D02*X24500Y386750D01*
X23500D01*
X17000Y393250D01*
X18000D01*
G37*
G36*
X20000D02*X26500Y386750D01*
X25500D01*
X19000Y393250D01*
X20000D01*
G37*
G36*
X22000D02*X28500Y386750D01*
X27500D01*
X21000Y393250D01*
X22000D01*
G37*
G36*
X24000D02*X30500Y386750D01*
X29500D01*
X23000Y393250D01*
X24000D01*
G37*
G36*
X26000D02*X31000Y388250D01*
Y387250D01*
X25000Y393250D01*
X26000D01*
G37*
G36*
X28000D02*X31000Y390250D01*
Y389250D01*
X27000Y393250D01*
X28000D01*
G37*
G36*
X29000D02*X30000D01*
X31000Y392250D01*
Y391250D01*
X29000Y393250D01*
G37*
G36*
X14000Y403250D02*X20500Y396750D01*
X19500D01*
X13000Y403250D01*
X14000D01*
G37*
G36*
X16000D02*X22500Y396750D01*
X21500D01*
X15000Y403250D01*
X16000D01*
G37*
G36*
X18000D02*X24500Y396750D01*
X23500D01*
X17000Y403250D01*
X18000D01*
G37*
G36*
X20000D02*X26500Y396750D01*
X25500D01*
X19000Y403250D01*
X20000D01*
G37*
G36*
X22000D02*X28500Y396750D01*
X27500D01*
X21000Y403250D01*
X22000D01*
G37*
G36*
X24000D02*X30500Y396750D01*
X29500D01*
X23000Y403250D01*
X24000D01*
G37*
G36*
X26000D02*X31000Y398250D01*
Y397250D01*
X25000Y403250D01*
X26000D01*
G37*
G36*
X28000D02*X31000Y400250D01*
Y399250D01*
X27000Y403250D01*
X28000D01*
G37*
G36*
X29000D02*X30000D01*
X31000Y402250D01*
Y401250D01*
X29000Y403250D01*
G37*
G36*
X14000Y413250D02*X20500Y406750D01*
X19500D01*
X13000Y413250D01*
X14000D01*
G37*
G36*
X16000D02*X22500Y406750D01*
X21500D01*
X15000Y413250D01*
X16000D01*
G37*
G36*
X18000D02*X24500Y406750D01*
X23500D01*
X17000Y413250D01*
X18000D01*
G37*
G36*
X20000D02*X26500Y406750D01*
X25500D01*
X19000Y413250D01*
X20000D01*
G37*
G36*
X22000D02*X28500Y406750D01*
X27500D01*
X21000Y413250D01*
X22000D01*
G37*
G36*
X24000D02*X30500Y406750D01*
X29500D01*
X23000Y413250D01*
X24000D01*
G37*
G36*
X26000D02*X31000Y408250D01*
Y407250D01*
X25000Y413250D01*
X26000D01*
G37*
G36*
X28000D02*X31000Y410250D01*
Y409250D01*
X27000Y413250D01*
X28000D01*
G37*
G36*
X29000D02*X30000D01*
X31000Y412250D01*
Y411250D01*
X29000Y413250D01*
G37*
G36*
X14000Y423250D02*X20500Y416750D01*
X19500D01*
X13000Y423250D01*
X14000D01*
G37*
G36*
X16000D02*X22500Y416750D01*
X21500D01*
X15000Y423250D01*
X16000D01*
G37*
G36*
X18000D02*X24500Y416750D01*
X23500D01*
X17000Y423250D01*
X18000D01*
G37*
G36*
X20000D02*X26500Y416750D01*
X25500D01*
X19000Y423250D01*
X20000D01*
G37*
G36*
X22000D02*X28500Y416750D01*
X27500D01*
X21000Y423250D01*
X22000D01*
G37*
G36*
X24000D02*X30500Y416750D01*
X29500D01*
X23000Y423250D01*
X24000D01*
G37*
G36*
X26000D02*X31000Y418250D01*
Y417250D01*
X25000Y423250D01*
X26000D01*
G37*
G36*
X28000D02*X31000Y420250D01*
Y419250D01*
X27000Y423250D01*
X28000D01*
G37*
G36*
X29000D02*X30000D01*
X31000Y422250D01*
Y421250D01*
X29000Y423250D01*
G37*
G36*
X14000Y433250D02*X20500Y426750D01*
X19500D01*
X13000Y433250D01*
X14000D01*
G37*
G36*
X16000D02*X22500Y426750D01*
X21500D01*
X15000Y433250D01*
X16000D01*
G37*
G36*
X18000D02*X24500Y426750D01*
X23500D01*
X17000Y433250D01*
X18000D01*
G37*
G36*
X20000D02*X26500Y426750D01*
X25500D01*
X19000Y433250D01*
X20000D01*
G37*
G36*
X22000D02*X28500Y426750D01*
X27500D01*
X21000Y433250D01*
X22000D01*
G37*
G36*
X24000D02*X30500Y426750D01*
X29500D01*
X23000Y433250D01*
X24000D01*
G37*
G36*
X26000D02*X31000Y428250D01*
Y427250D01*
X25000Y433250D01*
X26000D01*
G37*
G36*
X28000D02*X31000Y430250D01*
Y429250D01*
X27000Y433250D01*
X28000D01*
G37*
G36*
X29000D02*X30000D01*
X31000Y432250D01*
Y431250D01*
X29000Y433250D01*
G37*
G36*
X14000Y443250D02*X20500Y436750D01*
X19500D01*
X13000Y443250D01*
X14000D01*
G37*
G36*
X16000D02*X22500Y436750D01*
X21500D01*
X15000Y443250D01*
X16000D01*
G37*
G36*
X18000D02*X24500Y436750D01*
X23500D01*
X17000Y443250D01*
X18000D01*
G37*
G36*
X20000D02*X26500Y436750D01*
X25500D01*
X19000Y443250D01*
X20000D01*
G37*
G36*
X22000D02*X28500Y436750D01*
X27500D01*
X21000Y443250D01*
X22000D01*
G37*
G36*
X24000D02*X30500Y436750D01*
X29500D01*
X23000Y443250D01*
X24000D01*
G37*
G36*
X26000D02*X31000Y438250D01*
Y437250D01*
X25000Y443250D01*
X26000D01*
G37*
G36*
X28000D02*X31000Y440250D01*
Y439250D01*
X27000Y443250D01*
X28000D01*
G37*
G36*
X29000D02*X30000D01*
X31000Y442250D01*
Y441250D01*
X29000Y443250D01*
G37*
G36*
X14000Y453250D02*X20500Y446750D01*
X19500D01*
X13000Y453250D01*
X14000D01*
G37*
G36*
X16000D02*X22500Y446750D01*
X21500D01*
X15000Y453250D01*
X16000D01*
G37*
G36*
X18000D02*X24500Y446750D01*
X23500D01*
X17000Y453250D01*
X18000D01*
G37*
G36*
X20000D02*X26500Y446750D01*
X25500D01*
X19000Y453250D01*
X20000D01*
G37*
G36*
X22000D02*X28500Y446750D01*
X27500D01*
X21000Y453250D01*
X22000D01*
G37*
G36*
X24000D02*X30500Y446750D01*
X29500D01*
X23000Y453250D01*
X24000D01*
G37*
G36*
X26000D02*X31000Y448250D01*
Y447250D01*
X25000Y453250D01*
X26000D01*
G37*
G36*
X28000D02*X31000Y450250D01*
Y449250D01*
X27000Y453250D01*
X28000D01*
G37*
G36*
X29000D02*X30000D01*
X31000Y452250D01*
Y451250D01*
X29000Y453250D01*
G37*
G36*
X14000Y473250D02*X20500Y466750D01*
X19500D01*
X13000Y473250D01*
X14000D01*
G37*
G36*
X16000D02*X22500Y466750D01*
X21500D01*
X15000Y473250D01*
X16000D01*
G37*
G36*
X18000D02*X24500Y466750D01*
X23500D01*
X17000Y473250D01*
X18000D01*
G37*
G36*
X20000D02*X26500Y466750D01*
X25500D01*
X19000Y473250D01*
X20000D01*
G37*
G36*
X22000D02*X28500Y466750D01*
X27500D01*
X21000Y473250D01*
X22000D01*
G37*
G36*
X24000D02*X30500Y466750D01*
X29500D01*
X23000Y473250D01*
X24000D01*
G37*
G36*
X26000D02*X31000Y468250D01*
Y467250D01*
X25000Y473250D01*
X26000D01*
G37*
G36*
X28000D02*X31000Y470250D01*
Y469250D01*
X27000Y473250D01*
X28000D01*
G37*
G36*
X29000D02*X30000D01*
X31000Y472250D01*
Y471250D01*
X29000Y473250D01*
G37*
G36*
X11000Y459250D02*Y460250D01*
X14500Y456750D01*
X13500D01*
X11000Y459250D01*
G37*
G36*
Y462250D02*X16500Y456750D01*
X15500D01*
X11000Y461250D01*
Y462250D01*
G37*
G36*
X12000Y463250D02*X18500Y456750D01*
X17500D01*
X11000Y463250D01*
X12000D01*
G37*
G36*
X11000Y458250D02*X12500Y456750D01*
X11000D01*
Y458250D01*
G37*
G36*
X14000Y463250D02*X20500Y456750D01*
X19500D01*
X13000Y463250D01*
X14000D01*
G37*
G36*
X16000D02*X22500Y456750D01*
X21500D01*
X15000Y463250D01*
X16000D01*
G37*
G36*
X18000D02*X24500Y456750D01*
X23500D01*
X17000Y463250D01*
X18000D01*
G37*
G36*
X20000D02*X26500Y456750D01*
X25500D01*
X19000Y463250D01*
X20000D01*
G37*
G36*
X22000D02*X28500Y456750D01*
X27500D01*
X21000Y463250D01*
X22000D01*
G37*
G36*
X24000D02*X30500Y456750D01*
X29500D01*
X23000Y463250D01*
X24000D01*
G37*
G36*
X26000D02*X31000Y458250D01*
Y457250D01*
X25000Y463250D01*
X26000D01*
G37*
G36*
X28000D02*X31000Y460250D01*
Y459250D01*
X27000Y463250D01*
X28000D01*
G37*
G36*
X29000D02*X30000D01*
X31000Y462250D01*
Y461250D01*
X29000Y463250D01*
G37*
G54D48*X74350Y12500D02*X110170D01*
Y142500D01*
X74350Y12500D02*Y16890D01*
Y142500D02*X110170D01*
X74350Y138110D02*Y142500D01*
G54D49*X163000Y57600D02*X119700D01*
Y257600D01*
X163000D01*
X131500D02*Y57600D01*
G54D48*X172500Y307500D02*X102500D01*
Y437500D02*X172500D01*
Y432500D01*
G54D49*X163000Y257600D02*Y57600D01*
G54D48*X172500Y312500D02*Y307500D01*
X161500D02*Y437500D01*
G54D50*X167000Y427500D02*X162000D01*
X167000Y417500D02*X162000D01*
X167000Y407500D02*X162000D01*
X167000Y397500D02*X162000D01*
X167000Y387500D02*X162000D01*
X167000Y377500D02*X162000D01*
X167000Y367500D02*X162000D01*
X167000Y357500D02*X162000D01*
X167000Y347500D02*X162000D01*
X167000Y337500D02*X162000D01*
X167000Y327500D02*X162000D01*
X167000Y317500D02*X162000D01*
G54D48*X7800Y142000D02*Y488000D01*
X24800Y482000D02*X27300D01*
X19800D02*X22300D01*
X7800Y488000D02*X50800D01*
X34800Y482000D02*X37300D01*
Y479500D02*Y482000D01*
X29800D02*X32300D01*
X14800D02*X17300D01*
X9800D02*X12300D01*
X37300Y473800D02*Y476300D01*
Y468800D02*Y471300D01*
Y463800D02*Y466300D01*
Y458800D02*Y461300D01*
Y453800D02*Y456300D01*
Y448800D02*Y451300D01*
Y443800D02*Y446300D01*
Y438800D02*Y441300D01*
Y433800D02*Y436300D01*
Y428800D02*Y431300D01*
Y423800D02*Y426300D01*
Y418800D02*Y421300D01*
Y413800D02*Y416300D01*
Y408800D02*Y411300D01*
Y403800D02*Y406300D01*
Y398800D02*Y401300D01*
Y393800D02*Y396300D01*
Y388800D02*Y391300D01*
Y383800D02*Y386300D01*
Y378800D02*Y381300D01*
Y373800D02*Y376300D01*
Y368800D02*Y371300D01*
Y363800D02*Y366300D01*
Y358800D02*Y361300D01*
Y353800D02*Y356300D01*
Y348800D02*Y351300D01*
Y343800D02*Y346300D01*
Y338800D02*Y341300D01*
Y333800D02*Y336300D01*
Y328800D02*Y331300D01*
Y323800D02*Y326300D01*
Y318800D02*Y321300D01*
Y313800D02*Y316300D01*
Y308800D02*Y311300D01*
Y303800D02*Y306300D01*
Y298800D02*Y301300D01*
Y293800D02*Y296300D01*
Y288800D02*Y291300D01*
Y283800D02*Y286300D01*
Y278800D02*Y281300D01*
Y273800D02*Y276300D01*
Y268800D02*Y271300D01*
Y263800D02*Y266300D01*
Y258800D02*Y261300D01*
Y253800D02*Y256300D01*
Y248800D02*Y251300D01*
Y243800D02*Y246300D01*
Y238800D02*Y241300D01*
Y233800D02*Y236300D01*
Y228800D02*Y231300D01*
Y223800D02*Y226300D01*
Y218800D02*Y221300D01*
Y213800D02*Y216300D01*
Y208800D02*Y211300D01*
Y203800D02*Y206300D01*
Y198800D02*Y201300D01*
Y193800D02*Y196300D01*
Y188800D02*Y191300D01*
Y183800D02*Y186300D01*
Y178800D02*Y181300D01*
Y173800D02*Y176300D01*
Y168800D02*Y171300D01*
X68800Y482500D02*Y470000D01*
X50800Y488000D02*Y482500D01*
X68800D01*
X53960Y460810D02*X31500Y470000D01*
X68800D02*X62800D01*
G54D50*X85000D02*X63300D01*
X85000Y460000D02*X63300D01*
X85000Y450000D02*X63300D01*
X85000Y440000D02*X63300D01*
X85000Y430000D02*X63300D01*
X85000Y420000D02*X63300D01*
X85000Y410000D02*X63300D01*
X85000Y400000D02*X63300D01*
X85000Y360000D02*X63300D01*
X85000Y350000D02*X63300D01*
X85000Y390000D02*X63300D01*
X85000Y380000D02*X63300D01*
X85000Y370000D02*X63300D01*
X85000Y340000D02*X63300D01*
X85000Y330000D02*X63300D01*
X85000Y320000D02*X63300D01*
X85000Y310000D02*X63300D01*
X85000Y300000D02*X63300D01*
X85000Y290000D02*X63300D01*
X85000Y280000D02*X63300D01*
X85000Y270000D02*X63300D01*
X85000Y260000D02*X63300D01*
X85000Y250000D02*X63300D01*
X85000Y240000D02*X63300D01*
X85000Y230000D02*X63300D01*
X85000Y220000D02*X63300D01*
X85000Y210000D02*X63300D01*
X85000Y200000D02*X63300D01*
X85000Y190000D02*X63300D01*
X85000Y180000D02*X63300D01*
X85000Y170000D02*X63300D01*
X85000Y160000D02*X63300D01*
G54D48*X62800Y470000D02*Y160000D01*
X29800Y148000D02*X32300D01*
X24800D02*X27300D01*
X19800D02*X22300D01*
X14800D02*X17300D01*
X50800Y142000D02*X7800D01*
X50800Y147500D02*Y142000D01*
X37300Y148000D02*X34800D01*
X37300D02*Y150500D01*
X9800Y148000D02*X12300D01*
X62800Y160000D02*X68800D01*
Y147500D02*X50800D01*
X68800Y160000D02*Y147500D01*
X37300Y153800D02*Y156300D01*
Y158800D02*Y161300D01*
Y163800D02*Y166300D01*
X102500Y307500D02*Y437500D01*
G54D51*X50140Y419730D02*X54140D01*
X50140Y419230D02*Y421230D01*
X50640Y421730D01*
X51640D01*
X52140Y421230D02*X51640Y421730D01*
X52140Y419730D02*Y421230D01*
X51140Y422930D02*X51240D01*
X52640D02*X54140D01*
X52640Y424430D02*X54140D01*
X52640D02*X52140Y424930D01*
Y425430D01*
X52640Y425930D01*
X54140D01*
X52140Y423930D02*X52640Y424430D01*
X50940Y428930D02*X50140Y429730D01*
X54140D01*
Y428930D02*Y430430D01*
X52640Y433430D02*X53640D01*
X52640D02*X52140Y433930D01*
Y434930D01*
X52640Y435430D01*
X53640D01*
X54140Y434930D02*X53640Y435430D01*
X54140Y433930D02*Y434930D01*
X53640Y433430D02*X54140Y433930D01*
X52640Y437130D02*X54140D01*
X52640D02*X52140Y437630D01*
Y438130D01*
X52640Y438630D01*
X54140D01*
X52140Y436630D02*X52640Y437130D01*
X54140Y441630D02*Y443630D01*
X53640Y444130D01*
X52440D02*X53640D01*
X51940Y443630D02*X52440Y444130D01*
X51940Y442130D02*Y443630D01*
X50140Y442130D02*X54140D01*
X50140Y441630D02*Y443630D01*
X50640Y444130D01*
X51440D01*
X51940Y443630D02*X51440Y444130D01*
X52640Y445330D02*X53640D01*
X52640D02*X52140Y445830D01*
Y446830D01*
X52640Y447330D01*
X53640D01*
X54140Y446830D02*X53640Y447330D01*
X54140Y445830D02*Y446830D01*
X53640Y445330D02*X54140Y445830D01*
X50140Y449030D02*X53640D01*
X54140Y449530D01*
X51640Y448530D02*Y449530D01*
X50140Y451030D02*X53640D01*
X54140Y451530D01*
X51640Y450530D02*Y451530D01*
X52640Y452530D02*X53640D01*
X52640D02*X52140Y453030D01*
Y454030D01*
X52640Y454530D01*
X53640D01*
X54140Y454030D02*X53640Y454530D01*
X54140Y453030D02*Y454030D01*
X53640Y452530D02*X54140Y453030D01*
X52640Y456230D02*X54140D01*
X52640D02*X52140Y456730D01*
Y457230D01*
X52640Y457730D01*
X54140D01*
X52640D02*X52140Y458230D01*
Y458730D01*
X52640Y459230D01*
X54140D01*
X52140Y455730D02*X52640Y456230D01*
X76000Y477200D02*Y478500D01*
X75300Y476500D02*X76000Y477200D01*
X72700Y476500D02*X75300D01*
X72700D02*X72000Y477200D01*
Y478500D01*
X72500Y479700D02*X75500D01*
X72500D02*X72000Y480200D01*
Y481200D01*
X72500Y481700D01*
X75500D01*
X76000Y481200D02*X75500Y481700D01*
X76000Y480200D02*Y481200D01*
X75500Y479700D02*X76000Y480200D01*
X72000Y482900D02*X76000D01*
X72000D02*X76000Y485400D01*
X72000D02*X76000D01*
X72000Y486600D02*X76000D01*
X72000D02*X76000Y489100D01*
X72000D02*X76000D01*
X75500Y490300D02*X76000Y490800D01*
X72500Y490300D02*X75500D01*
X72500D02*X72000Y490800D01*
Y491800D01*
X72500Y492300D01*
X75500D01*
X76000Y491800D02*X75500Y492300D01*
X76000Y490800D02*Y491800D01*
X75000Y490300D02*X73000Y492300D01*
X67500Y13500D02*X71000D01*
X71500Y14000D01*
Y15000D01*
X71000Y15500D01*
X67500D02*X71000D01*
Y16700D02*X71500Y17200D01*
X68000Y16700D02*X71000D01*
X68000D02*X67500Y17200D01*
Y18200D01*
X68000Y18700D01*
X71000D01*
X71500Y18200D02*X71000Y18700D01*
X71500Y17200D02*Y18200D01*
X70500Y16700D02*X68500Y18700D01*
X113100Y155700D02*X117100D01*
X113100D02*X115100Y157200D01*
X113100Y158700D01*
X117100D01*
X113600Y159900D02*X116600D01*
X113600D02*X113100Y160400D01*
Y161400D01*
X113600Y161900D01*
X116600D01*
X117100Y161400D02*X116600Y161900D01*
X117100Y160400D02*Y161400D01*
X116600Y159900D02*X117100Y160400D01*
X113100Y163600D02*X117100D01*
X113100Y164900D02*X113800Y165600D01*
X116400D01*
X117100Y164900D02*X116400Y165600D01*
X117100Y163100D02*Y164900D01*
X113100Y163100D02*Y164900D01*
X116600Y166800D02*X117100Y167300D01*
X113600Y166800D02*X116600D01*
X113600D02*X113100Y167300D01*
Y168300D01*
X113600Y168800D01*
X116600D01*
X117100Y168300D02*X116600Y168800D01*
X117100Y167300D02*Y168300D01*
X116100Y166800D02*X114100Y168800D01*
X176500Y307500D02*X180000D01*
X180500Y308000D01*
Y309000D01*
X180000Y309500D01*
X176500D02*X180000D01*
Y310700D02*X180500Y311200D01*
X177000Y310700D02*X180000D01*
X177000D02*X176500Y311200D01*
Y312200D01*
X177000Y312700D01*
X180000D01*
X180500Y312200D02*X180000Y312700D01*
X180500Y311200D02*Y312200D01*
X179500Y310700D02*X177500Y312700D01*
M02*
