G04 start of page 4 for group 7 layer_idx 4 *
G04 Title: (unknown), Intern *
G04 Creator: pcb-rnd 2.3.0 *
G04 CreationDate: 2021-04-02 00:52:23 UTC *
G04 For:  *
G04 Format: Gerber/RS-274X *
G04 PCB-Dimensions: 500000 500000 *
G04 PCB-Coordinate-Origin: lower left *
%MOIN*%
%FSLAX25Y25*%
%LNINTERN_COPPER_NONE_7*%
%ADD31C,0.0300*%
%ADD30C,0.0320*%
%ADD29C,0.0430*%
%ADD28C,0.0500*%
%ADD27C,0.0520*%
%ADD26C,0.0001*%
%ADD25C,0.0630*%
G54D25*X92500Y342500D03*
Y357500D03*
X102500D03*
Y342500D03*
X112500D03*
Y357500D03*
X122500D03*
X132500D03*
X142500D03*
X152500D03*
X122500Y342500D03*
X132500D03*
X142500D03*
X152500D03*
X162500D03*
Y357500D03*
G54D26*G36*
X154900Y250100D02*Y244900D01*
X160100D01*
Y250100D01*
X154900D01*
G37*
G54D27*X167500Y247500D03*
X177500D03*
X187500D03*
X197500D03*
X207500D03*
X217500D03*
X227500D03*
X237500D03*
X247500D03*
X257500D03*
X267500D03*
G54D28*X307500Y172500D03*
X317500D03*
X327500D03*
X337500D03*
X347500D03*
X357500D03*
G54D25*X172500Y342500D03*
Y357500D03*
G54D26*G36*
X164950Y175050D02*Y169950D01*
X170050D01*
Y175050D01*
X164950D01*
G37*
G54D28*X177500Y172500D03*
X187500D03*
X197500D03*
X207500D03*
G54D25*X182500Y342500D03*
Y357500D03*
X192500D03*
X202500D03*
X212500D03*
X222500D03*
X232500D03*
X242500D03*
X252500D03*
X262500D03*
X272500D03*
X282500D03*
X292500D03*
X302500D03*
X312500D03*
X322500D03*
X332500D03*
X342500D03*
X352500D03*
X362500D03*
X372500D03*
X382500D03*
X392500D03*
G54D26*G36*
X399350Y360650D02*Y354350D01*
X405650D01*
Y360650D01*
X399350D01*
G37*
G54D25*X192500Y342500D03*
X202500D03*
X212500D03*
X222500D03*
X232500D03*
X242500D03*
X252500D03*
X262500D03*
X272500D03*
X282500D03*
X292500D03*
X302500D03*
X312500D03*
X322500D03*
X332500D03*
X342500D03*
X352500D03*
X362500D03*
X372500D03*
X382500D03*
X392500D03*
X402500D03*
G54D27*X377500Y280000D03*
X407500D03*
X397500D03*
X387500D03*
X367500D03*
X357500D03*
X347500D03*
X337500D03*
X327500D03*
X317500D03*
X307500D03*
G54D26*G36*
X294900Y282600D02*Y277400D01*
X300100D01*
Y282600D01*
X294900D01*
G37*
G54D29*G54D30*G54D31*G54D29*G54D31*G54D29*G54D30*M02*
