G04 start of page 2 for group 3 layer_idx 0 *
G04 Title: (unknown), top_copper *
G04 Creator: pcb-rnd 2.3.0 *
G04 CreationDate: 2021-04-02 00:52:23 UTC *
G04 For:  *
G04 Format: Gerber/RS-274X *
G04 PCB-Dimensions: 500000 500000 *
G04 PCB-Coordinate-Origin: lower left *
%MOIN*%
%FSLAX25Y25*%
%LNTOP_COPPER_NONE_3*%
%ADD17C,0.0300*%
%ADD16C,0.0320*%
%ADD15C,0.0430*%
%ADD14C,0.0600*%
%ADD13C,0.0620*%
%ADD12C,0.0001*%
%ADD11C,0.0830*%
G54D11*X92500Y342500D03*
Y357500D03*
X102500D03*
Y342500D03*
X112500D03*
Y357500D03*
X122500D03*
X132500D03*
X142500D03*
X152500D03*
X122500Y342500D03*
X132500D03*
X142500D03*
X152500D03*
X162500D03*
Y357500D03*
G54D12*G36*
X154400Y250600D02*Y244400D01*
X160600D01*
Y250600D01*
X154400D01*
G37*
G54D13*X167500Y247500D03*
X177500D03*
X187500D03*
X197500D03*
X207500D03*
X217500D03*
X227500D03*
X237500D03*
X247500D03*
X257500D03*
X267500D03*
G54D14*X307500Y172500D03*
X317500D03*
X327500D03*
X337500D03*
X347500D03*
X357500D03*
G54D11*X172500Y342500D03*
Y357500D03*
G54D12*G36*
X164500Y175500D02*Y169500D01*
X170500D01*
Y175500D01*
X164500D01*
G37*
G54D14*X177500Y172500D03*
X187500D03*
X197500D03*
X207500D03*
G54D11*X182500Y342500D03*
Y357500D03*
X192500D03*
X202500D03*
X212500D03*
X222500D03*
X232500D03*
X242500D03*
X252500D03*
X262500D03*
X272500D03*
X282500D03*
X292500D03*
X302500D03*
X312500D03*
X322500D03*
X332500D03*
X342500D03*
X352500D03*
X362500D03*
X372500D03*
X382500D03*
X392500D03*
G54D12*G36*
X398350Y361650D02*Y353350D01*
X406650D01*
Y361650D01*
X398350D01*
G37*
G54D11*X192500Y342500D03*
X202500D03*
X212500D03*
X222500D03*
X232500D03*
X242500D03*
X252500D03*
X262500D03*
X272500D03*
X282500D03*
X292500D03*
X302500D03*
X312500D03*
X322500D03*
X332500D03*
X342500D03*
X352500D03*
X362500D03*
X372500D03*
X382500D03*
X392500D03*
X402500D03*
G54D13*X377500Y280000D03*
X407500D03*
X397500D03*
X387500D03*
X367500D03*
X357500D03*
X347500D03*
X337500D03*
X327500D03*
X317500D03*
X307500D03*
G54D12*G36*
X294400Y283100D02*Y276900D01*
X300600D01*
Y283100D01*
X294400D01*
G37*
G54D15*G54D16*G54D17*G54D15*G54D17*G54D15*G54D16*M02*
