G04 start of page 2 for group 3 layer_idx 0 *
G04 Title: (unknown), top_copper *
G04 Creator: pcb-rnd 2.3.0 *
G04 CreationDate: 2021-04-02 01:52:25 UTC *
G04 For:  *
G04 Format: Gerber/RS-274X *
G04 PCB-Dimensions: 300000 500000 *
G04 PCB-Coordinate-Origin: lower left *
%MOIN*%
%FSLAX25Y25*%
%LNTOP_COPPER_NONE_3*%
%ADD17C,0.0300*%
%ADD16C,0.0320*%
%ADD15C,0.0430*%
%ADD14C,0.0600*%
%ADD13C,0.0620*%
%ADD12C,0.0001*%
%ADD11C,0.0830*%
G54D11*X85000Y160000D03*
Y170000D03*
Y180000D03*
Y190000D03*
Y230000D03*
Y240000D03*
Y250000D03*
Y260000D03*
Y200000D03*
Y210000D03*
Y220000D03*
Y270000D03*
Y280000D03*
Y290000D03*
Y330000D03*
Y340000D03*
Y350000D03*
Y360000D03*
Y300000D03*
Y310000D03*
Y320000D03*
Y370000D03*
Y380000D03*
Y390000D03*
Y430000D03*
Y440000D03*
Y450000D03*
Y460000D03*
Y400000D03*
Y410000D03*
Y420000D03*
Y470000D03*
X70000Y160000D03*
Y170000D03*
Y180000D03*
Y220000D03*
Y230000D03*
Y240000D03*
Y250000D03*
Y190000D03*
Y200000D03*
Y210000D03*
Y260000D03*
Y270000D03*
Y280000D03*
Y320000D03*
Y330000D03*
Y340000D03*
Y350000D03*
Y290000D03*
Y300000D03*
Y310000D03*
Y360000D03*
Y370000D03*
Y380000D03*
Y420000D03*
Y430000D03*
Y440000D03*
Y450000D03*
Y390000D03*
Y400000D03*
Y410000D03*
Y460000D03*
G54D12*G36*
X65850Y465850D02*X74150D01*
Y474150D01*
X65850D01*
Y465850D01*
G37*
G54D13*X77500Y132500D03*
Y122500D03*
Y112500D03*
Y102500D03*
Y92500D03*
Y82500D03*
Y72500D03*
Y62500D03*
Y52500D03*
Y42500D03*
Y32500D03*
G54D12*G36*
X74400Y19400D02*X80600D01*
Y25600D01*
X74400D01*
Y19400D01*
G37*
G54D14*X147500Y92500D03*
Y102500D03*
Y202500D03*
Y212500D03*
G54D12*G36*
X144500Y59500D02*X150500D01*
Y65500D01*
X144500D01*
Y59500D01*
G37*
G54D14*X147500Y72500D03*
Y82500D03*
Y222500D03*
Y232500D03*
Y242500D03*
Y252500D03*
G54D12*G36*
X169400Y314400D02*X175600D01*
Y320600D01*
X169400D01*
Y314400D01*
G37*
G54D13*X172500Y327500D03*
Y337500D03*
Y347500D03*
Y387500D03*
Y397500D03*
Y407500D03*
Y417500D03*
Y357500D03*
Y367500D03*
Y377500D03*
Y427500D03*
G54D15*G54D16*G54D17*G54D16*M02*
