G04 start of page 9 for group -1 layer_idx 268435462 *
G04 Title: (unknown), <virtual group> *
G04 Creator: pcb-rnd 2.3.0 *
G04 CreationDate: 2021-04-02 00:52:23 UTC *
G04 For:  *
G04 Format: Gerber/RS-274X *
G04 PCB-Dimensions: 500000 500000 *
G04 PCB-Coordinate-Origin: lower left *
%MOIN*%
%FSLAX25Y25*%
%LNGLOBAL_VIRTUAL_PDRILL_NONE*%
%ADD54C,0.0300*%
%ADD53C,0.0320*%
%ADD52C,0.0430*%
G54D52*X92500Y342500D03*
Y357500D03*
X102500D03*
Y342500D03*
X112500D03*
Y357500D03*
X122500D03*
X132500D03*
X142500D03*
X152500D03*
X122500Y342500D03*
X132500D03*
X142500D03*
X152500D03*
X162500D03*
Y357500D03*
G54D53*X157500Y247500D03*
X167500D03*
X177500D03*
X187500D03*
X197500D03*
X207500D03*
X217500D03*
X227500D03*
X237500D03*
X247500D03*
X257500D03*
X267500D03*
G54D54*X307500Y172500D03*
X317500D03*
X327500D03*
X337500D03*
X347500D03*
X357500D03*
G54D52*X172500Y342500D03*
Y357500D03*
G54D54*X167500Y172500D03*
X177500D03*
X187500D03*
X197500D03*
X207500D03*
G54D52*X182500Y342500D03*
Y357500D03*
X192500D03*
X202500D03*
X212500D03*
X222500D03*
X232500D03*
X242500D03*
X252500D03*
X262500D03*
X272500D03*
X282500D03*
X292500D03*
X302500D03*
X312500D03*
X322500D03*
X332500D03*
X342500D03*
X352500D03*
X362500D03*
X372500D03*
X382500D03*
X392500D03*
X402500D03*
X192500Y342500D03*
X202500D03*
X212500D03*
X222500D03*
X232500D03*
X242500D03*
X252500D03*
X262500D03*
X272500D03*
X282500D03*
X292500D03*
X302500D03*
X312500D03*
X322500D03*
X332500D03*
X342500D03*
X352500D03*
X362500D03*
X372500D03*
X382500D03*
X392500D03*
X402500D03*
G54D53*X377500Y280000D03*
X407500D03*
X397500D03*
X387500D03*
X367500D03*
X357500D03*
X347500D03*
X337500D03*
X327500D03*
X317500D03*
X307500D03*
X297500D03*
M02*
