G04 start of page 7 for group 11 layer_idx 11 *
G04 Title: (unknown), bottom_mask *
G04 Creator: pcb-rnd 2.3.0 *
G04 CreationDate: 2021-04-02 01:52:25 UTC *
G04 For:  *
G04 Format: Gerber/RS-274X *
G04 PCB-Dimensions: 300000 500000 *
G04 PCB-Coordinate-Origin: lower left *
%MOIN*%
%FSLAX25Y25*%
%LNBOTTOM_MASK_NONE_11*%
%ADD46C,0.0650*%
%ADD45C,0.0670*%
%ADD44C,0.0001*%
%ADD43C,0.0880*%
G54D43*X85000Y160000D03*
Y170000D03*
Y180000D03*
Y190000D03*
Y230000D03*
Y240000D03*
Y250000D03*
Y260000D03*
Y200000D03*
Y210000D03*
Y220000D03*
Y270000D03*
Y280000D03*
Y290000D03*
Y330000D03*
Y340000D03*
Y350000D03*
Y360000D03*
Y300000D03*
Y310000D03*
Y320000D03*
Y370000D03*
Y380000D03*
Y390000D03*
Y430000D03*
Y440000D03*
Y450000D03*
Y460000D03*
Y400000D03*
Y410000D03*
Y420000D03*
Y470000D03*
X70000Y160000D03*
Y170000D03*
Y180000D03*
Y220000D03*
Y230000D03*
Y240000D03*
Y250000D03*
Y190000D03*
Y200000D03*
Y210000D03*
Y260000D03*
Y270000D03*
Y280000D03*
Y320000D03*
Y330000D03*
Y340000D03*
Y350000D03*
Y290000D03*
Y300000D03*
Y310000D03*
Y360000D03*
Y370000D03*
Y380000D03*
Y420000D03*
Y430000D03*
Y440000D03*
Y450000D03*
Y390000D03*
Y400000D03*
Y410000D03*
Y460000D03*
G54D44*G36*
X65550Y465550D02*X74450D01*
Y474450D01*
X65550D01*
Y465550D01*
G37*
G54D45*X77500Y132500D03*
Y122500D03*
Y112500D03*
Y102500D03*
Y92500D03*
Y82500D03*
Y72500D03*
Y62500D03*
Y52500D03*
Y42500D03*
Y32500D03*
G54D44*G36*
X74100Y19100D02*X80900D01*
Y25900D01*
X74100D01*
Y19100D01*
G37*
G54D46*X147500Y92500D03*
Y102500D03*
Y202500D03*
Y212500D03*
G54D44*G36*
X144200Y59200D02*X150800D01*
Y65800D01*
X144200D01*
Y59200D01*
G37*
G54D46*X147500Y72500D03*
Y82500D03*
Y222500D03*
Y232500D03*
Y242500D03*
Y252500D03*
G54D44*G36*
X169100Y314100D02*X175900D01*
Y320900D01*
X169100D01*
Y314100D01*
G37*
G54D45*X172500Y327500D03*
Y337500D03*
Y347500D03*
Y387500D03*
Y397500D03*
Y407500D03*
Y417500D03*
Y357500D03*
Y367500D03*
Y377500D03*
Y427500D03*
M02*
