G04 start of page 7 for group 11 layer_idx 11 *
G04 Title: (unknown), bottom_mask *
G04 Creator: pcb-rnd 2.3.0 *
G04 CreationDate: 2021-04-02 00:52:23 UTC *
G04 For:  *
G04 Format: Gerber/RS-274X *
G04 PCB-Dimensions: 500000 500000 *
G04 PCB-Coordinate-Origin: lower left *
%MOIN*%
%FSLAX25Y25*%
%LNBOTTOM_MASK_NONE_11*%
%ADD46C,0.0650*%
%ADD45C,0.0670*%
%ADD44C,0.0001*%
%ADD43C,0.0880*%
G54D43*X92500Y342500D03*
Y357500D03*
X102500D03*
Y342500D03*
X112500D03*
Y357500D03*
X122500D03*
X132500D03*
X142500D03*
X152500D03*
X122500Y342500D03*
X132500D03*
X142500D03*
X152500D03*
X162500D03*
Y357500D03*
G54D44*G36*
X154100Y250900D02*Y244100D01*
X160900D01*
Y250900D01*
X154100D01*
G37*
G54D45*X167500Y247500D03*
X177500D03*
X187500D03*
X197500D03*
X207500D03*
X217500D03*
X227500D03*
X237500D03*
X247500D03*
X257500D03*
X267500D03*
G54D46*X307500Y172500D03*
X317500D03*
X327500D03*
X337500D03*
X347500D03*
X357500D03*
G54D43*X172500Y342500D03*
Y357500D03*
G54D44*G36*
X164200Y175800D02*Y169200D01*
X170800D01*
Y175800D01*
X164200D01*
G37*
G54D46*X177500Y172500D03*
X187500D03*
X197500D03*
X207500D03*
G54D43*X182500Y342500D03*
Y357500D03*
X192500D03*
X202500D03*
X212500D03*
X222500D03*
X232500D03*
X242500D03*
X252500D03*
X262500D03*
X272500D03*
X282500D03*
X292500D03*
X302500D03*
X312500D03*
X322500D03*
X332500D03*
X342500D03*
X352500D03*
X362500D03*
X372500D03*
X382500D03*
X392500D03*
G54D44*G36*
X398050Y361950D02*Y353050D01*
X406950D01*
Y361950D01*
X398050D01*
G37*
G54D43*X192500Y342500D03*
X202500D03*
X212500D03*
X222500D03*
X232500D03*
X242500D03*
X252500D03*
X262500D03*
X272500D03*
X282500D03*
X292500D03*
X302500D03*
X312500D03*
X322500D03*
X332500D03*
X342500D03*
X352500D03*
X362500D03*
X372500D03*
X382500D03*
X392500D03*
X402500D03*
G54D45*X377500Y280000D03*
X407500D03*
X397500D03*
X387500D03*
X367500D03*
X357500D03*
X347500D03*
X337500D03*
X327500D03*
X317500D03*
X307500D03*
G54D44*G36*
X294100Y283400D02*Y276600D01*
X300900D01*
Y283400D01*
X294100D01*
G37*
M02*
